<svg width="951" height="950" xmlns="http://www.w3.org/2000/svg"><path fill="#39ab96" d="M364.201 15.163c58.058 62.219 96.344 140.027 147.735 206.595a543.306 543.306 0 0115.463 21.926l1.921 2.832c4.974 7.485 7.584 12.754 7.473 21.951l-.025 4.284c-.209 3.41-.209 3.41-1.44 4.642l3.373-.05 4.395-.024 4.37-.05c3.867.124 3.867.124 7.56 1.355 5.54 1.452 10.341 2.228 16.005 1.23 4.826-4.333 7.78-9.183 11.08-14.773 1.994-2.954 1.994-2.954 3.693-4.924h2.462l1.231-3.694c3.041-3.139 6.5-5.823 9.85-8.617l3.053-2.684c8.655-7.412 17.691-12.976 27.725-18.246l3.373-1.81c25.681-12.778 55.388-12.594 82.806-6.807l3.607.738c4.149.911 11.166 4.186 11.166 4.186 8.336 1.56 14.336 7.17 21.003 11.856 15.9 10.2 26.759 24.697 37.611 39.728 6.603 9.951 10.573 20.853 14.023 32.133 1.144 8.185 10.567 31.004 11.498 37.303 1.01 4.124 2.857 6.87 5.196 10.403 18.885 29.584 31.32 68.512 31.32 103.722.209 1.7.443 3.386.689 5.085.185 1.563.37 3.14.542 4.764l-1.231 1.231c4.124 4.125 8.974 7.301 13.702 10.699l7.227 5.306 3.324 2.438c3.168 2.347 20.222 16.424 31 39.186l1.33 2.832c12.233 23.539 11.72 49.093 11.252 74.865 0 6.082-.825 11.77-2.044 17.728l-.653 3.201c-4.16 19.169-11.338 37.13-20.818 54.268l-1.231 2.265c-10.71 19.304-24.29 36.885-38.867 53.394-11.583 15.15-25.9 27.687-40.208 40.135-12.435 10.834-25.485 20.621-38.892 30.237-2.757 1.97-2.757 1.97-5.146 4.469a432.409 432.409 0 01-6.106 3.496c-4.53 2.573-8.95 5.294-13.358 8.04l-2.844 1.71c-5.454 3.386-5.454 3.386-8.827 8.692l-.874 3.915a188.764 188.764 0 01-2.044 4.925l-1.17 2.671a1028.095 1028.095 0 01-7.817 17.138c-8.507 18.159-21.138 30.852-36.983 42.978l-2.34 1.933c-.447.36-34.482 27.617-67.07 32.231l-5.012.776c-26.469 4.05-54.612 6.968-80.49-1.108-7.35-2.241-14.873-3.57-22.42-4.974-27.367-5.085-54.021-11.314-80.552-19.797a557.695 557.695 0 00-19.23-5.737c-14.737-4.112-29.055-8.162-42.856-14.896-34.333-13.012-75.698-21.2-113.547-32.97-3.447-1.354-12.151-4.703-12.151-4.703l-15.081-6.082-4.322-1.748-4.16-1.662-3.83-1.551c-10.742-6.112-22.487-10.053-33.4-16.19a819.937 819.937 0 00-7.177-4.013l-3.164-1.785c-6.876-4.321-9.037-6.208-17.815-10.674-7.264-4.26-14.047-9.16-20.867-14.096-9.309-5.585-17.38-12.724-25.608-19.76-13.85-11.659-25.324-24.672-35.616-39.519-3.956-4.162-6.432-8.963-9.062-13.998l-1.637-3.2-1.674-3.19c-1.946-10.193-7.64-19.231-10.563-29.35l-.493-2.745-1.28-7.72-.505-3.028c-5.774-41.612 7.756-81.968 32.514-115.16a206.103 206.103 0 0134.2-34.73c2.55-1.97 2.55-1.97 3.965-3.434.27-2.549.456-5.11.616-7.67 2.872-26.039 3.476-28.112 5.54-50.193h-2.463l-.381-2.93a106.947 106.947 0 00-3.78-13.74 30.372 30.372 0 01-.763-9.184l-2.462-1.231c-.468-2.992-.468-2.992-.69-6.697-3.448-21.355-5.439-43.108-7.928-64.708 0 0-5.78-34.883-7.769-49.861-3.486-24.261-5.683-42.14-9.935-67.17l-.468-2.709c-1.23-6.648-4.44-21.156-3.865-24.364.037-2.499.037-2.499-1.355-4.863a278.818 278.818 0 01-.615-8.544c-.345-6.303-.345-6.303-1.847-12.385a266.21 266.21 0 01-.615-7.694c-.296-4.334-.64-8.495-1.392-12.78-.668-13.302 9.274-31.87 15.094-40.393l2.191-2.918c1.527-2.093 2.98-4.235 4.42-6.39h2.462l.985-2.203a27.947 27.947 0 015.417-6.943l2.34-2.34 2.499-2.437 2.548-2.524a275.01 275.01 0 0127.479-23.613c37.716-29.73 83.618-48.343 129.096-63.046 23.215-4.152 67.17-17.568 89.404-6.463z"/><path fill="#162b2e" d="M364.201 15.163c31.93 27.124 111.327 159.435 147.735 206.595a543.306 543.306 0 0115.463 21.926l1.921 2.832c4.974 7.485 7.584 12.754 7.473 21.951l-.025 4.284c-.209 3.41-.209 3.41-1.44 4.642l3.373-.05 4.395-.024 4.37-.05c3.867.124 3.867.124 7.56 1.355 5.54 1.452 10.341 2.228 16.005 1.23 4.826-4.333 7.78-9.183 11.08-14.773 1.994-2.954 1.994-2.954 3.693-4.924h2.462l1.231-3.694c3.041-3.139 6.5-5.823 9.85-8.617l3.053-2.684c8.655-7.412 17.691-12.976 27.725-18.246l3.373-1.81c25.681-12.778 55.388-12.594 82.806-6.807 13.754 2.055 24.754 9.032 35.776 16.78a171.744 171.744 0 0117.051 14.145c8.74 8.268 14.026 16.64 20.56 25.583 5.502 8.31 9.948 18.809 14.023 32.133 4.21 9.844 11.307 36.007 11.498 37.303 1.01 4.124 2.857 6.87 5.196 10.403 18.885 29.584 31.32 68.512 31.32 103.722.209 1.7.443 3.386.689 5.085.185 1.563.37 3.14.542 4.764l-1.231 1.231c4.124 4.125 8.974 7.301 13.702 10.699l7.227 5.306 3.324 2.438c5.636 4.175 21.07 18.215 31 39.186l1.33 2.832c11.24 22.051 11.867 45.753 11.129 70.039l.123 4.826c0 6.082-.825 11.77-2.044 17.728l-.653 3.201c-4.16 19.169-11.338 37.13-20.818 54.268l-1.231 2.265c-10.71 19.304-24.29 36.885-38.867 53.394-11.657 15.128-25.886 27.675-40.208 40.135-12.435 10.834-25.485 20.621-38.892 30.237-2.757 1.97-2.757 1.97-5.146 4.469a432.409 432.409 0 01-6.106 3.496c-4.53 2.573-8.95 5.294-13.358 8.04l-2.844 1.71c-5.454 3.386-5.454 3.386-8.827 8.692l-.874 3.915a188.764 188.764 0 01-2.044 4.925l-1.17 2.671a1028.095 1028.095 0 01-7.817 17.138c-8.507 18.159-21.138 30.852-36.983 42.978l-2.34 1.933c-.447.36-34.482 27.617-67.07 32.231l-5.012.776c-26.469 4.05-54.612 6.968-80.49-1.108-7.35-2.241-14.873-3.57-22.42-4.974-27.367-5.085-54.021-11.314-80.552-19.797a557.695 557.695 0 00-19.23-5.737c-14.737-4.112-29.055-8.162-42.856-14.896-7.94-3.718-15.795-4.937-24.425-6.107-29.713-7.77-59.898-17.235-89.122-26.863-3.447-1.354-12.151-4.703-12.151-4.703l-15.081-6.082-4.322-1.748-4.16-1.662c-15.505-5.664-36.347-17.244-37.23-17.74-16.27-9.022-33.36-19.27-49.023-30.57-9.179-5.774-17.346-12.796-25.608-19.759-13.85-11.659-25.324-24.672-35.616-39.519-11.22-14.436-17.523-32.306-22.936-49.738l-.493-2.745-1.28-7.72-.505-3.028c-5.774-41.612 7.756-81.968 32.514-115.16a206.103 206.103 0 0134.2-34.73c2.55-1.97 2.55-1.97 3.965-3.434.27-2.549.456-5.11.616-7.67l.307-4.765c.986-15.422 1.264-20.015 5.233-45.428h-2.463l-.381-2.93a106.947 106.947 0 00-3.78-13.74 30.372 30.372 0 01-.763-9.184l-2.462-1.231c-3.37-23.727-5.829-47.592-8.618-71.405 0 0-5.78-34.883-7.769-49.861l-.443-3.2c-4.804-32.81-2.595-17.697-9.492-63.97l-.468-2.709c-1.23-6.648-5.41-29.136-5.835-37.77-.345-6.304-.345-6.304-1.847-12.386a266.21 266.21 0 01-.615-7.694c-.296-4.334-.64-8.495-1.392-12.78-.816-7.37 2.56-25.496 10.625-34.927 2.34-2.536 2.34-2.536 4.469-5.466l2.191-2.918c4.148-5.488 8.392-10.728 13.284-15.536l2.34-2.34 2.499-2.437 2.548-2.524a275.01 275.01 0 0127.479-23.613c10.692-7.712 3.48-2.65 14.133-10.415 24.364-17.391 51.377-29.487 78.792-41.17 7.018-3.15 96.16-32.616 125.575-17.924zm247.457 246.225l-2.512 1.871c-6.71 5.331-12.188 12.14-17.186 19.058v2.462l4.05 1.97 5.343 2.647 2.66 1.293c14.096 6.993 14.096 6.993 16.73 12.25.247.91.493 1.834.764 2.77a374.257 374.257 0 01-24.857-4.31c-18.159-3.668-36.158-4.715-54.65-4.628-3.348.012-6.697 0-10.058-.013a355.522 355.522 0 00-59.783 4.802l-3.57.59a487.352 487.352 0 00-32.675 7.252l-2.511.616a347.508 347.508 0 00-31.037 9.233c1.44 4.321 2.524 4.9 6.156 7.46 8.827 6.649 16.435 14.356 20.929 24.55v2.462a52.815 52.815 0 01-11.696-5.996c-21.705-14.404-44.16-26.962-69.558-33.4l-4.223-1.182c-37.476-9.148-75.21.652-107.896 19.34-27.553 16.904-50.587 42.45-66.395 70.483l-1.502 2.622c-17.322 30.618-27.368 66.185-26.715 101.543.258 22.838.258 22.838-4.21 28.255a77.635 77.635 0 01-11.893 7.928 193.572 193.572 0 00-6.845 5.393l-3.35 2.745c-25.237 22.222-45.243 55.844-47.927 89.872a219.498 219.498 0 00-.123 9.862l.012 3.582c.665 38.731 18.726 70.359 44.69 97.838l2.4 2.56c33.61 34.694 80.541 57.765 124.406 76.232l3.534 1.502c36.158 15.217 74.101 25.115 112.155 34.238l2.487.603 5.097 1.219c4.41.99 8.732 2.332 12.927 4.013l2.98 1.231 3.09 1.28c15.955 6.489 32.095 11.61 48.629 16.4l4.333 1.255c7.215 2.056 14.405 3.89 21.754 5.405a164.727 164.727 0 0120.548 5.798c15.832 5.245 32.021 8.778 48.322 12.238 4.456.948 8.913 1.92 13.37 2.905 13.283 2.869 25.693 5.146 39.334 4.247l5.516-.172c42.227-1.354 81.18-9.75 111.207-41.452 6.254-7.35 11.388-15.315 16.239-23.625l2.462-4.186c11.807-21.36 18.22-46.512 24.869-69.867 1.182-4.124 2.277-7.288 4.678-10.895 2.856 6.783 2.746 12.94 2.622 20.166l-.036 3.447-.124 8.396c16.3-9.996 32.12-20.966 46.783-33.24l3.78-3.14c20.757-17.31 41.243-35.715 57.777-57.185l2.831-3.472c19.144-23.884 35.284-51.621 42.72-81.476l.96-3.718c2.5-10.415 3.35-20.437 3.288-31.098-.013-2.573.024-5.147.061-7.72.148-29.879-11.856-56.385-32.699-77.499-9.627-9.997-9.627-9.997-22.086-14.158l-.739 2.007c-7.756 21.089-16.644 40.898-37.426 52.015-9.135 4.198-18.393 5.355-28.316 6.303l.763 2.167c1.872 5.417 3.423 10.588 4.162 16.3a102.467 102.467 0 01-15.316-10.009c-11.252-8.544-23.317-15.758-35.554-22.8-36.688-21.188-67.565-48.79-79.507-90.98-10.095-38.806-7.682-81.255 12.078-116.465 10.883-18.43 25.09-30.914 45.662-37.217 25.755-5.208 49.984 5.54 70.95 19.39l2.918 2.007c-6.242-26.334-25.99-51.695-48.285-66.678-42.203-26.026-90.02-15.894-127.766 12.508z"/><path fill="#b44422" d="M340.428 32.017l2.72-.074c6.797.012 12.755 1.059 17.975 5.835 5.614 6.28 10.243 13.457 15.008 20.4l2.622 3.804a6204.338 6204.338 0 0111.425 16.584c2.72 3.94 5.43 7.904 8.138 11.855l6.525 9.48a10830.445 10830.445 0 0145.54 66.69l2.289 3.374c7.067 10.378 14.17 20.732 21.508 30.925a711.382 711.382 0 0126.678 39.569l-3.533-.726c-19.329-3.842-38.276-6.008-58.023-5.43l-2.758.05c-24.869.504-49.553 4.592-73.572 11.03l-2.708.702c-26.74 7.018-52.976 18.22-77.315 31.308l-2.881 1.514a336.32 336.32 0 00-41.44 25.57l-2.462 1.749c-12.84 9.172-24.413 19.255-35.703 30.26l-3.496 3.35a223.893 223.893 0 00-19.895 22.504l-3.041 3.817a312.46 312.46 0 00-20.35 29.424l-2.069 3.213c-5.269 8.372-8.987 17.199-12.705 26.334h-2.462a522.884 522.884 0 01-8.692-50.944l-1.822-14.035-.443-3.472c-1.305-10.058-2.721-20.104-4.186-30.138a3814.54 3814.54 0 01-2.315-16.546 4224.058 4224.058 0 00-8.47-58.996c-2.228-14.712-4.42-29.424-6.463-44.16l-.603-4.248a457.425 457.425 0 01-2.709-24.918l-.37-4.038c-.8-16.189 8.545-27.478 18.837-39.051l3.115-3.607c8.42-9.615 17.716-17.95 27.663-25.94l2.29-1.847c13.235-10.538 27.306-19.39 42.03-27.7l3.128-1.76c43.237-24.192 93.122-40.997 142.995-41.711z"/><path fill="#142a2c" d="M708.535 631.65h2.56c11.647-.025 22.863.738 34.362 2.671 15.069 2.462 30.753 3.115 45.44-1.551 3.164-.862 5.86-.948 9.123-.813-.566 6.057-1.785 9.283-6.155 13.543-8.938 5.884-16.793 8.815-27.492 8.642-9.762-.295-9.762-.295-18.503 3.238-2.02 3.324-3.214 6.599-4.482 10.28a1614.007 1614.007 0 01-3.3 6.722c-12.04 25.127-20.263 53.135-25.483 80.43-13.469 69.841-13.469 69.841-34.004 93.824l-2.487 3.028c-22.567 26.47-57.37 37.734-91.079 41.292-21.73 1.6-42.695-.837-64.018-4.924l-2.832-.517c-42.597-7.966-86.351-26.716-120.281-53.653l-3.41-2.66c-9.357-7.583-17.913-15.942-26.445-24.425l-3.447-3.41a274.098 274.098 0 01-20.868-23.675l-1.797-2.228a286.951 286.951 0 01-17.211-23.785l-1.724-2.623c-3.04-4.74-5.786-9.516-8.298-14.576-6.045-12.804-6.045-12.804-17.15-20.732-3.36-1.059-6.758-1.97-10.156-2.881-5.183-1.662-9.898-4.247-14.687-6.808l-2.967-1.588c-8.618-4.679-16.62-10.034-24.5-15.882-4.974 1.896-7.325 5.097-10.538 9.234-2.98 3.816-5.122 6.55-9.16 9.233-3.349-3.349-2.905-5.33-3.004-10.01.148-7.866 1.564-12.409 6.697-18.306l1.896-2.29c7.203-7.978 16.695-13.21 27.528-13.887 5.725.37 9.85 2.758 14.208 6.328 1.92 2.462 1.92 2.462 1.92 6.156l-2.647.492-3.435.665-3.41.64c-2.758.394-2.758.394-4.05 1.896 53.652 37.02 121.857 46.426 185.284 35.444 50.366-9.332 95.905-27.836 141.962-49.442 28.845-13.542 58.318-26.838 90.106-31.554l4.284-.677c7.855-.948 15.759-.85 23.638-.862z"/><path fill="#17272b" d="M392.246 429.043c20.979 17.974 34.915 44.813 37.205 72.415 1.859 34.311-4.58 65.04-27.7 91.473a57.21 57.21 0 01-12.927 10.71l-3.164 1.909c-20.646 11.35-44.075 13.419-66.678 7.177-16.017-4.912-28.193-13.124-39.729-25.09l-3.028-2.955c-21.582-22.136-27.22-52.79-27.122-82.609.566-25.484 9.11-49.368 26.457-68.327l2.056-2.352c31.05-33.572 81.107-28.623 114.63-2.351z"/><path fill="#ebe2bc" d="M403.523 397.76c22.013 18.048 37.76 41.735 45.01 69.337a226.302 226.302 0 001.81 6.439c5.503 21.95 4.765 47.99-1.194 69.78l-.616 2.388c-8.273 31.468-26.85 60.289-54.785 77.635l-3.447 2.216c-9.11 5.627-18.331 9.455-28.562 12.558l-3.804 1.194c-28.82 7.658-61.532 3.164-87.398-11.326a140.915 140.915 0 01-29.448-23.109l-3.25-3.213c-24.894-25.804-35.433-62.369-35.21-97.579.75-38.497 14.822-73.855 42.153-101.112a131.053 131.053 0 0148.014-28.316l3.447-1.194c36.441-10.588 78.386 1.144 107.28 24.302zm-132.001 40.492c-20.252 26.444-24.893 56.311-21.446 88.875 3.422 24.598 14.478 45.22 31.64 62.972l2.757 2.893c15.808 15.475 37.562 22.837 59.415 23.576 19.365-.64 40.59-6.426 54.87-20.166 20.376-22.43 31.247-49.319 31.075-79.777l-.013-3.915c-.492-30.753-12.015-57.924-33.486-80.146-18.59-17.31-42.523-25.78-67.688-25.054-23.293 1.318-42.326 13.481-57.124 30.742z"/><path fill="#118e85" d="M167.22 411.586c1.823 3.631.37 6.241-.664 9.996-8.913 32.994-11.597 70.667-6.18 104.498l.48 2.992a190.948 190.948 0 002.524 12.631c.812 4.31 1.182 7.178.148 11.462-4.1 5.06-8.803 8.963-13.875 13.013-16.46 13.592-27.27 33.942-31.677 54.7-3.447 40.503 8.802 73.608 34.631 104.694 12.213 14.466 25.485 27.737 40.468 39.347l3.36 2.708c19.218 15.303 40.234 28.44 61.31 41.01 3.448 2.092 6.87 4.21 10.293 6.34 15.389 9.48 30.815 17.85 47.46 24.905 4.653 2.02 9.233 4.186 13.813 6.365 2.93 1.391 2.93 1.391 6.574 1.157l-2.671-2.4a683.682 683.682 0 01-28.107-27.147l1.231-2.462 2.118 2.18c27.7 28.364 54.686 45.108 91.965 59.377 3.447 1.33 6.87 2.708 10.304 4.075 13.481 5.392 26.938 10.366 40.886 14.391-4.949 1.983-9.209.382-14.096-1.034l-2.709-.763c-2.893-.825-5.786-1.662-8.667-2.512l-2.955-.861c-13.924-4.014-27.306-8.557-40.516-14.528a160.243 160.243 0 00-22.665-7.263c-.862-.197-1.724-.419-2.622-.64a2127.03 2127.03 0 00-16.99-4.1c-64.93-15.598-128.566-38.51-184.484-75.64l-2.093-1.38c-15.18-10.095-28.747-21.643-41.994-34.09l-2.413-2.215c-25.583-24.254-41.378-59.932-42.326-94.994-.16-13.1 1.145-24.549 5.343-36.983l.825-2.487c6.156-18.38 14.995-34.385 27.491-49.22l1.724-2.044a160.687 160.687 0 0126.309-24.5l1.994-1.538a87.398 87.398 0 016.131-4.014c4.999-5.565 4.186-10.932 4.088-18.147.036-2.905.086-5.798.147-8.692l.086-4.444c.862-24.93 4.235-69.559 23.54-88.05z"/><path fill="#e5583a" d="M582.11 782.155a107.034 107.034 0 0112.312 9.849l2.82 2.474c13.69 12.73 27.096 33.893 28.094 53.173l-.013 2.893-.012 3.152-.037 3.25-.012 3.324-.061 8.064c-52.52 20.732-115.21 4.9-164.935-16.35-25.582-11.338-47.349-26.173-67.748-45.207 1.698-3.078 1.698-3.078 3.693-6.155h2.462l.887-2.13c7.768-13.789 25.312-21.693 39.74-26.186 23.564-6.538 50.587 2.499 71.406 13.542 10.23 5.971 19.267 13.32 28.316 20.93l6.155 4.924c-7.239-17.113-20.018-29.363-36.934-36.934v-2.462c26.346-9.098 50.329-4.31 73.868 9.849z"/><path fill="#91302f" d="M706.368 648.873a2554.01 2554.01 0 0117.187 0c3.632.308 5.7.874 8.753 2.782l-1.896 3.657c-17.26 33.671-26.764 69.25-34.102 106.172-10.021 50.193-10.021 50.193-21.865 66.222h-2.462l-.603-2.585c-4.986-18.64-14.601-37.402-27.713-51.584l-2.72-3.115a535.97 535.97 0 00-8.36-9.196l-2.24-2.487c-25.091-26.667-58.492-37.796-93.788-43.065v-4.925c19.526-10.587 39.507-20.24 59.525-29.854 3.632-1.736 7.239-3.497 10.846-5.257 31.05-15.119 64.61-26.987 99.438-26.765z"/><path fill="#142628" d="M350.659 356.185l4.592.91c25.644 5.529 46.733 17.938 65.582 36.024l3.066 2.831c27.49 26.174 42.904 64.671 43.963 102.38.21 15.76-.554 30.804-3.94 46.217l-.615 2.832c-3.226 14.084-8.409 26.42-15.39 39.027l-1.797 3.397c-5.158 9.259-12.065 17.076-19.131 24.918l-2.733 3.054c-22.629 23.884-56.066 39.199-88.875 40.344-39.052.726-72.846-11.72-101.26-38.793-17.581-17.224-29.695-36.675-37.735-59.931l-.861-2.438c-5.393-16.596-6.833-33.622-6.686-50.969l.013-2.831c.246-42.782 16.201-81.513 46.08-112.5 30.877-30.126 73.4-43.213 115.727-34.472zm-99.721 41.858l-2.894 2.29c-25.73 21.299-41.12 55.278-44.813 88.038a217.443 217.443 0 00-.307 6.931l-.099 2.462c-1.416 40.381 10.206 77.118 37.845 106.948 14.343 15.057 33.203 27.688 53.357 33.4l3.816 1.109c30.126 7.387 62.702 3.385 89.7-11.77 31.763-19.513 52.323-48.346 61.606-84.135l1.194-4.358c5.085-21.976 5.122-47.83-1.194-69.51l-1.268-4.826c-9.443-34.25-33.425-62.54-63.982-80.121-43.237-23.613-95.51-17.371-132.961 13.542z"/><path fill="#f1e9c3" d="M766.78 320.482c38.03 26.15 57.493 72.292 65.964 116.255 4.838 29.547 3.151 59.02-14.208 84.234-8.248 10.157-20.178 17.162-33.29 18.652-5.86.332-11.523.246-17.235-1.231a109.853 109.853 0 014.1-7.72c15.684-26.937 17.728-62.935 10.464-93.048a167.138 167.138 0 00-9.64-26.038l-2.006-4.408c-11.782-24.746-29.326-46.413-55.857-55.918-15.389-3.2-28.02-.935-41.858 6.156 5.294-17.273 16.583-32.096 32.145-41.28 21.187-10.809 41.366-7.657 61.42 4.346z"/><path fill="#96d7a5" d="M244.782 687.358a45.305 45.305 0 0111.942 6.426c12.594 8.95 27.023 17.04 41.797 21.68 7.719 2.5 10.895 5.368 14.7 12.533l1.661 3.374c1.231 2.339 2.5 4.678 3.755 7.017l1.871 3.509c7.683 13.887 17.753 26.69 27.689 39.027l1.55 1.945c18.32 22.69 39.348 44.136 64.167 59.611 6.402 4.161 10.182 8.704 14.392 15.02 3.94 5.724 8.692 10.71 13.456 15.758l2.093 2.29c9.726 10.28 22 18.036 33.61 26.026-4.85 1.871-8.347.554-13.21-.911l-2.462-.739c-2.647-.788-5.294-1.6-7.953-2.425l-2.746-.85a483.956 483.956 0 01-46.413-16.989 622.335 622.335 0 00-10.551-4.284c-44.9-17.876-44.9-17.876-58.245-30.434l-2.72-2.339c-15.07-13.05-29.474-27.368-41.6-43.212l-2.955-3.73c-19.452-24.611-36.7-51.893-44.985-82.363-.247-.96-.517-1.896-.788-2.881-1.588-6.254-2.955-12.927-1.748-19.366 1.87-2.166 1.87-2.166 3.693-3.693z"/><path fill="#532b2c" d="M606.733 757.224a202.151 202.151 0 017.387 6.464l2.253 2.044c20.966 19.254 38.239 44.85 44.53 73.055-.616 6.845-4.383 10.994-9.455 15.29-4.47 3.373-8.544 5.208-13.937 6.87l-.135-3.743c-1.145-25.656-8.618-46.327-24.487-66.431l-2.512-3.201c-15.635-18.713-41.218-31.27-65.2-34.964-15.734-1.022-30.778.074-44.936 7.694-7.153 3.57-13.42 2.24-20.966.345-9.11-2.044-17.802-2.524-27.122-2.5l-4.518-.11c-20.56-.037-38.756 9.824-53.554 23.675a103.907 103.907 0 00-9.726 11.941l-1.687 2.044c-2.462 0-2.462 0-4.247-1.76-.677-.813-1.355-1.638-2.069-2.463-3.385-4.025-3.385-4.025-6.919-7.928-12.225-13.087-22.615-28.168-32.243-43.25l-1.6-2.474c-1.231-1.995-2.34-4.063-3.398-6.143l1.231-3.694 2.413.566c20.597 4.617 40.381 6.193 61.458 6.131h3.484c13.887-.036 27.257-.787 40.984-3.003 3.497-.542 7.005-1.06 10.502-1.589l2.708-.406c51.93-7.805 107.724-4.85 151.761 27.54z"/><path fill="#91312f" d="M511.936 262.62c2.463 2.461 2.463 2.461 2.709 5.391l-.086 3.386-.074 3.386-.086 2.61c-4.124 2.437-7.609 2.93-12.36 3.3l-4.507.368-4.838.407a367.319 367.319 0 00-78.016 15.623l-2.758.861c-10.17 3.214-10.17 3.214-19.994 7.313-8.52 3.288-14.798 1.392-22.874-1.785-15.512-5.786-31.32-9.098-47.94-8.975a271974700 271974700 0 01-16.817.062l-13.961.061c3.57-3.804 7.596-5.946 12.237-8.236l2.61-1.293c56.583-27.404 146.615-53.443 206.756-22.48z"/><path fill="#b64234" d="M514.731 788.372c4.272 3.053 8.372 6.266 10.748 11.019l-2.118.652c-20.72 6.463-37.057 13.493-53.283 28.193a33.634 33.634 0 01-8.618 5.626l-1.23 2.462c-1.54 3.066-3.042 3.681-6.157 4.925v2.462c-2.843.985-4.395 1.416-7.288.419l-2.45-1.367-2.745-1.526-2.906-1.687-2.979-1.687a156.846 156.846 0 01-20.437-14.084c-2.905-2.327-2.905-2.327-6.081-3.373-4.162-1.748-7.067-4.555-10.28-7.633l-1.872-1.736a736.83 736.83 0 01-4.518-4.26c1.7-3.078 1.7-3.078 3.694-6.155h2.462l.886-2.13c7.769-13.789 25.312-21.693 39.741-26.186 24.5-6.808 54.564 2.991 75.431 16.066z"/><path fill="#ece4be" d="M376.586 452.828c7.646 4.21 12.582 11.696 15.266 19.908 1.872 8.088 3.484 16.706-.098 24.499-2.524 4.013-4.802 6.907-9.086 9.147-6.032.973-10.772.739-16.312-1.92-9.148-8.113-14.515-16.3-16.165-28.698-.37-8.618 1.453-15.352 7.177-21.902 5.442-4.715 13.038-3.73 19.218-1.034z"/><path fill="#138e87" d="M478.302 349.487c10.28 1.958 18.06 9.05 25.017 16.547 4.85 7.362 6.845 14.613 6.155 23.391-1.354 4.802-1.908 5.787-6.155 8.618-7.289 1.244-13.297.776-19.55-3.312a79.198 79.198 0 01-11.229-10.23l-2.622-2.844c-4.617-6.636-6.845-13.493-6.488-21.631 1.539-8.15 6.931-11.154 14.872-10.539z"/><path fill="#f1e9c5" d="M727.691 388.97c5.787.16 8.828 1.477 13.235 5.38 9.369 10.403 13.21 20.178 12.804 34.225-.653 5.27-1.7 7.608-5.417 11.326-4.457 1.478-7.633 1.626-12.311 1.232-9.874-5.048-15.451-13.087-18.837-23.416-1.846-7.88-2.043-15.328.825-22.9 3.029-4.431 4.395-5.761 9.701-5.847z"/><path fill="#13292b" d="M625.2 556.44c6.944 2.45 12.545 6.045 16.005 12.73.923 3.804.652 5.823 0 9.849-2.216 3.46-3.718 5.54-7.387 7.387-12.287.874-24.352 1.317-34.398-6.87-3.644-3.743-4.9-5.946-5.614-11.203.8-5.294 1.355-7.744 5.7-10.957 7.547-3.73 17.606-2.709 25.682-.936z"/><path fill="#138f88" d="M514.399 324.176c8.458 3.053 14.071 8.236 18.467 16.004 2.486 6.156 2.967 10.785 1.23 17.236-2.732 3.14-4.234 3.644-8.37 3.964-7.659-.53-14.651-4.74-19.945-10.218-5.17-6.722-6.87-12.25-6.156-20.83 2.549-7.104 7.88-7.166 14.774-6.156z"/><path fill="#138e87" d="M534.097 382.038c6.685 3.41 10.563 7.99 13.542 14.774.739 4.961.739 7.35-1.773 11.696-4.16 2.437-6.857 2.142-11.548 1.354-4.038-1.108-6.081-2.5-8.84-5.663-3.816-6.747-4.234-12.225-2.461-19.698 2.831-4.925 6.044-3.94 11.08-2.463z"/><path fill="#13282a" d="M742.539 552.623c4.727.776 6.451 3.103 9.467 6.698 2.118 6.34 2.02 11.597-.468 17.703-1.994 3.226-1.994 3.226-4.456 5.688-3.46.542-3.46.542-7.387 0-3.46-3.004-3.46-3.004-6.156-6.155l-1.23-1.232c-.69-7.866.652-13.05 4.924-19.698 2.462-2.462 2.462-2.462 5.306-3.004z"/><path fill="#091011" d="M742.157 772.306c4.05 4.05 3.755 8.58 3.817 14.072a968.577 968.577 0 01-.062 9.134l-.061 7.572-2.463 1.231V777.23h-2.462l-.652 2.4c-8.434 31.1-17.076 60.966-33.82 88.704l-2.462-1.231 1.896-3.128c14.478-24.277 22.58-51.953 30.126-79.063 1.403-4.887 2.622-8.765 6.143-12.606z"/><path fill="#0a1414" d="M696.605 511.307c4.199 1.883 7.486 4.383 11.08 7.239 9.554 7.263 19.846 13.21 30.188 19.28a440.522 440.522 0 0144.911 30.113l-1.23-12.312c4.037 4.038 4.185 4.728 4.542 10.083l.246 3.361.136 2.561c-5.393-1.096-8.963-4.013-13.235-7.313a343.054 343.054 0 00-35.013-22.763 368.169 368.169 0 01-27.233-17.088l-2.659-1.847c-4.69-3.324-8.36-6.55-11.733-11.314z"/><path fill="#8b2d29" d="M181.994 91.493l2.463 1.23-.591 3.078c-2.376 16.067-.173 31.173 3.348 46.845 1.847 8.42 3.558 16.866 5.294 25.3.616 3.102 1.268 6.204 1.908 9.295a1016.42 1016.42 0 016.44 33.819c1.181 6.734 2.462 13.456 3.767 20.165l.775 4.075a1907.33 1907.33 0 004.087 20.622 764.087 764.087 0 017.424 41.095c.653 4.333 1.576 8.568 2.56 12.853.961 5.195.961 5.195-1.23 9.233l-3.004 2.61-4.26 4.26a844.573 844.573 0 01-6.685 6.599c-9.677 9.529-18.96 18.971-27.22 29.768l-3.004 3.78a292.036 292.036 0 00-25.312 38.079l-2.462-1.231c-.579-2.266-.579-2.266-.948-5.27l-.456-3.434-.468-3.78-.492-3.94a15500.011 15500.011 0 00-4.518-35.407 4464.497 4464.497 0 00-6.279-46.573c-1.428-10.366-2.832-20.72-4.013-31.11-1.564-13.753-3.62-27.455-5.602-41.158l-4.31-30.002-.418-2.893c-5.22-36.565-5.22-36.565 1.268-47.436 2.364-3.04 2.364-3.04 5.307-6.303l1.822-2.093c6.82-7.793 13.9-15.266 21.864-21.914a101.223 101.223 0 006.476-6.156c3.73-3.804 7.67-7.275 11.708-10.747 3.201-2.856 6.193-5.885 9.172-8.975 1.896-1.822 1.896-1.822 5.59-4.284z"/></svg>