<?xml version="1.0" encoding="UTF-8" standalone="no"?>
<svg
   width="951"
   height="950"
   version="1.1"
   id="svg288"
   sodipodi:docname="fez-logo.svg"
   inkscape:version="1.4 (e7c3feb1, 2024-10-09)"
   xmlns:inkscape="http://www.inkscape.org/namespaces/inkscape"
   xmlns:sodipodi="http://sodipodi.sourceforge.net/DTD/sodipodi-0.dtd"
   xmlns="http://www.w3.org/2000/svg"
   xmlns:svg="http://www.w3.org/2000/svg">
  <defs
     id="defs288" />
  <sodipodi:namedview
     id="namedview288"
     pagecolor="#ffffff"
     bordercolor="#666666"
     borderopacity="1.0"
     inkscape:showpageshadow="2"
     inkscape:pageopacity="0.0"
     inkscape:pagecheckerboard="0"
     inkscape:deskcolor="#d1d1d1"
     inkscape:zoom="0.67709672"
     inkscape:cx="274.70226"
     inkscape:cy="455.62176"
     inkscape:window-width="1728"
     inkscape:window-height="990"
     inkscape:window-x="0"
     inkscape:window-y="38"
     inkscape:window-maximized="0"
     inkscape:current-layer="layer1" />
  <g
     inkscape:groupmode="layer"
     id="layer2"
     inkscape:label="Lijnen 1">
    <path
       fill="#39ab96"
       d="m 364.20121,15.162636 c 58.05781,62.219082 96.34406,140.027594 147.73524,206.595424 5.33403,7.18039 10.4899,14.49139 15.46295,21.92637 l 1.92056,2.83159 c 4.97375,7.48525 7.58374,12.75447 7.47294,21.95099 l -0.0246,4.28432 c -0.20929,3.41023 -0.20929,3.41023 -1.44041,4.64135 l 3.37329,-0.0493 4.39512,-0.0246 4.37049,-0.0493 c 3.86575,0.12312 3.86575,0.12312 7.55913,1.35425 5.54008,1.45272 10.34147,2.22833 16.00465,1.23112 4.82602,-4.33357 7.78072,-9.1842 11.08015,-14.77352 1.99442,-2.9547 1.99442,-2.9547 3.69338,-4.92451 h 2.46225 l 1.23111,-3.69339 c 3.0409,-3.13936 6.50036,-5.82323 9.84902,-8.61788 l 3.0532,-2.68386 c 8.65483,-7.41138 17.6913,-12.97608 27.72498,-18.2453 l 3.37329,-1.80976 c 25.6813,-12.77909 55.3884,-12.59442 82.8056,-6.80812 l 3.60721,0.73867 c 4.14889,0.91104 11.16632,4.18583 11.16632,4.18583 8.33583,1.56028 14.33593,7.16946 21.00303,11.85576 15.89964,10.1995 26.75894,24.69732 37.61093,39.72846 6.6034,9.9511 10.57281,20.85239 14.02253,32.13241 1.14433,8.18579 10.56764,31.00464 11.49872,37.30315 1.00953,4.12428 2.85622,6.86969 5.19536,10.40303 18.88549,29.58397 31.31988,68.51222 31.31988,103.72244 0.20927,1.69896 0.4432,3.38561 0.68942,5.08456 0.18467,1.56352 0.36933,3.13938 0.5417,4.76446 l -1.23112,1.23113 c 4.12427,4.12427 8.97491,7.30058 13.70243,10.69849 l 7.22672,5.30616 3.32405,2.43763 c 3.16836,2.3472 20.22223,16.42459 30.99978,39.18677 l 1.3296,2.83159 c 12.23429,23.53872 11.72,49.09269 11.25251,74.86484 0,6.08177 -0.82486,11.76958 -2.04367,17.72822 l -0.6525,3.20093 c -4.16121,19.16866 -11.33868,37.1308 -20.81836,54.26809 l -1.23112,2.26526 c -10.71081,19.30408 -24.29014,36.88457 -38.86669,53.39397 -11.58331,15.14958 -25.90005,27.68674 -40.20861,40.13475 -12.43436,10.83392 -25.48432,20.62137 -38.8913,30.23648 -2.75771,1.9698 -2.75771,1.9698 -5.1461,4.469 -2.03136,1.18188 -4.06273,2.35145 -6.10639,3.49639 -4.53056,2.57305 -8.9503,5.29385 -13.35774,8.03926 l -2.8439,1.71126 c -5.45388,3.3856 -5.45388,3.3856 -8.82717,8.69177 l -0.87411,3.91498 c -0.65249,1.64971 -1.34193,3.28711 -2.04366,4.9245 l -1.16957,2.67154 c -2.5535,5.73619 -5.1595,11.44886 -7.81766,17.1373 -8.50709,18.15912 -21.13846,30.85203 -36.98305,42.97864 l -2.33914,1.93287 c -0.44793,0.35967 -34.48265,27.61715 -67.07181,32.2309 l -5.01069,0.77561 c -26.46922,4.05041 -54.61279,6.96818 -80.49108,-1.10801 -7.34982,-2.24065 -14.872,-3.57026 -22.41881,-4.97375 -27.36795,-5.08456 -54.02186,-11.31405 -80.55264,-19.79653 -6.37515,-2.02753 -12.78626,-3.94019 -19.23021,-5.73704 -14.73659,-4.11197 -29.05459,-8.16238 -42.85554,-14.89664 -34.33292,-13.01161 -75.69774,-21.19905 -113.54682,-32.96958 -3.44716,-1.35425 -12.15123,-4.70291 -12.15123,-4.70291 l -15.0813,-6.08176 -4.32126,-1.74821 -4.16122,-1.66202 -3.8288,-1.55121 c -10.74221,-6.11204 -22.48736,-10.05251 -33.40047,-16.18933 -2.38839,-1.35424 -4.77678,-2.68385 -7.17747,-4.01347 l -3.164,-1.78513 c -6.87571,-4.32137 -9.03664,-6.20801 -17.8144,-10.67387 -7.26367,-4.2597 -14.04716,-9.15959 -20.86761,-14.09642 -9.30832,-5.58523 -17.37905,-12.7233 -25.60745,-19.75958 -13.850169,-11.65876 -25.324275,-24.67178 -35.616491,-39.51917 -3.95581,-4.16224 -6.431595,-8.96313 -9.061095,-13.99792 l -1.637398,-3.20093 -1.674333,-3.18861 c -1.94532,-10.19377 -7.640519,-19.23154 -10.563119,-29.35009 l -0.492442,-2.74541 -1.280372,-7.71917 -0.50477,-3.02858 c -5.773981,-41.61209 7.756109,-81.96842 32.514068,-115.15961 9.986346,-12.88876 21.466852,-24.54696 34.200712,-34.7301 2.54844,-1.96979 2.54844,-1.96979 3.96423,-3.43484 0.27084,-2.54843 0.45551,-5.10918 0.61556,-7.66992 2.87216,-26.03878 3.47646,-28.11183 5.54007,-50.19305 h -2.46226 l -0.38164,-2.93008 c -0.95301,-4.65872 -2.21566,-9.2487 -3.77957,-13.73938 -0.72012,-3.00475 -0.97752,-6.10179 -0.76329,-9.1842 l -2.46225,-1.23114 c -0.46784,-2.99163 -0.46784,-2.99163 -0.68944,-6.69732 -3.44866,-21.35418 -5.43928,-43.10746 -7.92846,-64.70803 0,0 -5.77983,-34.88225 -7.7684,-49.86065 -3.486803,-24.26116 -5.683033,-42.14003 -9.935204,-67.17028 l -0.467827,-2.70848 c -1.23113,-6.64809 -4.439968,-21.15669 -3.865741,-24.36401 0.0369,-2.49919 0.0369,-2.49919 -1.354239,-4.86295 -0.246226,-2.83159 -0.455518,-5.68781 -0.615559,-8.54402 -0.34472,-6.30337 -0.34472,-6.30337 -1.846692,-12.38513 -0.246226,-2.56075 -0.4432,-5.12149 -0.61556,-7.69456 -0.295478,-4.33357 -0.640186,-8.49477 -1.391172,-12.77909 -0.668028,-13.30263 9.273713,-31.8707 15.09361,-40.39327 l 2.191411,-2.91778 c 1.526597,-2.09291 2.979333,-4.23508 4.419743,-6.38954 h 2.46225 l 0.9849,-2.20372 c 1.42734,-2.58627 3.25568,-4.92988 5.41695,-6.94356 l 2.33915,-2.33914 2.49919,-2.43763 2.54843,-2.52382 c 8.63058,-8.466456 17.8101,-16.35457 27.47876,-23.613009 37.71574,-29.729572 83.61866,-48.342653 129.09597,-63.046012 23.21528,-4.151953 67.17029,-17.5681832 89.40445,-6.463417 z"
       id="path1"
       sodipodi:nodetypes="cccccccccccccccccccccccccccccccccccccccccccccccccccccccccccccccccccccccccccccccccccccccccccccccccccccccccccccccccccc"
       style="stroke-width:1.23113" />
    <path
       fill="#162b2e"
       d="m 364.20121,15.162636 c 31.93005,27.124808 111.32694,159.435174 147.73524,206.595424 5.33403,7.18039 10.4899,14.49139 15.46295,21.92637 l 1.92056,2.83159 c 4.97375,7.48525 7.58374,12.75447 7.47294,21.95099 l -0.0246,4.28432 c -0.20929,3.41023 -0.20929,3.41023 -1.44041,4.64135 l 3.37329,-0.0493 4.39512,-0.0246 4.37049,-0.0493 c 3.86575,0.12312 3.86575,0.12312 7.55913,1.35425 5.54008,1.45272 10.34147,2.22833 16.00465,1.23112 4.82602,-4.33357 7.78072,-9.1842 11.08015,-14.77352 1.99442,-2.9547 1.99442,-2.9547 3.69338,-4.92451 h 2.46225 l 1.23111,-3.69339 c 3.0409,-3.13936 6.50036,-5.82323 9.84902,-8.61788 l 3.0532,-2.68386 c 8.65483,-7.41138 17.6913,-12.97608 27.72498,-18.2453 l 3.37329,-1.80976 c 25.6813,-12.77909 55.3884,-12.59442 82.8056,-6.80812 13.75418,2.05568 24.75396,9.03246 35.77656,16.78026 5.98223,4.34332 11.67776,9.06836 17.0511,14.14564 8.74068,8.26746 14.0257,16.63932 20.55983,25.58282 5.50208,8.31071 9.9478,18.80868 14.02253,32.13241 4.21133,9.84424 11.30719,36.00747 11.49872,37.30315 1.00953,4.12428 2.85622,6.86969 5.19536,10.40303 18.88549,29.58397 31.31988,68.51222 31.31988,103.72244 0.20927,1.69896 0.4432,3.38561 0.68942,5.08456 0.18467,1.56352 0.36933,3.13938 0.5417,4.76446 l -1.23112,1.23113 c 4.12427,4.12427 8.97491,7.30058 13.70243,10.69849 l 7.22672,5.30616 3.32405,2.43763 c 5.6358,4.17513 21.07024,18.2156 30.99978,39.18677 l 1.3296,2.83159 c 11.24121,22.05121 11.86833,45.75247 11.12939,70.03882 l 0.12312,4.82602 c 0,6.08177 -0.82486,11.76958 -2.04367,17.72822 l -0.6525,3.20093 c -4.16121,19.16866 -11.33868,37.1308 -20.81836,54.26809 l -1.23112,2.26526 c -10.71081,19.30408 -24.29014,36.88457 -38.86669,53.39397 -11.65758,15.1281 -25.88623,27.67473 -40.20861,40.13475 -12.43436,10.83392 -25.48432,20.62137 -38.8913,30.23648 -2.75771,1.9698 -2.75771,1.9698 -5.1461,4.469 -2.03136,1.18188 -4.06273,2.35145 -6.10639,3.49639 -4.53056,2.57305 -8.9503,5.29385 -13.35774,8.03926 l -2.8439,1.71126 c -5.45388,3.3856 -5.45388,3.3856 -8.82717,8.69177 l -0.87411,3.91498 c -0.65249,1.64971 -1.34193,3.28711 -2.04366,4.9245 l -1.16957,2.67154 c -2.5535,5.73619 -5.1595,11.44886 -7.81766,17.1373 -8.50709,18.15912 -21.13846,30.85203 -36.98305,42.97864 l -2.33914,1.93287 c -0.44793,0.35967 -34.48265,27.61715 -67.07181,32.2309 l -5.01069,0.77561 c -26.46922,4.05041 -54.61279,6.96818 -80.49108,-1.10801 -7.34982,-2.24065 -14.872,-3.57026 -22.41881,-4.97375 -27.36795,-5.08456 -54.02186,-11.31405 -80.55264,-19.79653 -6.37515,-2.02753 -12.78626,-3.94019 -19.23021,-5.73704 -14.73659,-4.11197 -29.05459,-8.16238 -42.85554,-14.89664 -7.94076,-3.71801 -15.79535,-4.93682 -24.42555,-6.1064 -29.71263,-7.77048 -59.89751,-17.23556 -89.12127,-26.86318 -3.44716,-1.35425 -12.15123,-4.70291 -12.15123,-4.70291 l -15.0813,-6.08176 -4.32126,-1.74821 -4.16122,-1.66202 C 206.94496,839.63539 186.10291,828.05549 185.22,827.55866 168.94991,818.53703 151.85907,808.2899 136.19652,796.98977 127.01824,791.21504 118.85104,784.19252 110.58907,777.23019 96.738861,765.57141 85.264755,752.55839 74.972539,737.711 63.752426,723.27451 57.449587,705.40525 52.036634,687.97347 l -0.492442,-2.74541 -1.280372,-7.71917 -0.50477,-3.02858 c -5.773981,-41.61209 7.756109,-81.96842 32.514068,-115.15961 9.986346,-12.88876 21.466852,-24.54696 34.200712,-34.7301 2.54844,-1.96979 2.54844,-1.96979 3.96423,-3.43484 0.27084,-2.54843 0.45551,-5.10918 0.61556,-7.66992 l 0.30777,-4.76446 c 0.9854,-15.42278 1.2638,-20.01557 5.2323,-45.42859 h -2.46226 l -0.38164,-2.93008 c -0.95301,-4.65872 -2.21566,-9.2487 -3.77957,-13.73938 -0.72012,-3.00475 -0.97752,-6.10179 -0.76329,-9.1842 l -2.46225,-1.23114 c -3.37039,-23.72715 -5.82841,-47.59165 -8.6179,-71.40535 0,0 -5.77983,-34.88225 -7.7684,-49.86065 l -0.443215,-3.20093 c -4.804277,-32.80967 -2.595536,-17.69562 -9.491989,-63.96935 l -0.467827,-2.70848 c -1.23113,-6.64809 -5.409972,-29.13631 -5.835539,-37.77098 -0.34472,-6.30337 -0.34472,-6.30337 -1.846692,-12.38513 -0.246226,-2.56075 -0.4432,-5.12149 -0.61556,-7.69456 -0.295478,-4.33357 -0.640186,-8.49477 -1.391172,-12.77909 -0.816332,-7.36958 2.559356,-25.49674 10.624617,-34.92708 2.339143,-2.53611 2.339143,-2.53611 4.468993,-5.46619 l 2.191411,-2.91778 c 4.148003,-5.4883 8.391943,-10.72876 13.283843,-15.53682 l 2.33915,-2.33914 2.49919,-2.43763 2.54843,-2.52382 c 8.63058,-8.466456 17.8101,-16.35457 27.47876,-23.613009 10.69267,-7.711547 3.48078,-2.650328 14.13335,-10.415334 24.36406,-17.390927 51.37731,-29.486379 78.79212,-41.168886 7.01741,-3.151686 96.1599,-32.61644736 125.57495,-17.925209 z m 247.45652,246.225404 -2.5115,1.8713 c -6.70964,5.33078 -12.18816,12.13892 -17.18653,19.05784 v 2.46227 l 4.05041,1.9698 5.34308,2.64693 2.65925,1.29267 c 14.09639,6.99281 14.09639,6.99281 16.731,12.24971 0.24622,0.91104 0.49246,1.83439 0.76331,2.77004 -8.33156,-1.15658 -16.62175,-2.59371 -24.85646,-4.30894 -18.15912,-3.66876 -36.15819,-4.71522 -54.64972,-4.62903 -3.34868,0.0122 -6.69734,0 -10.05832,-0.0122 -20.0275,-0.0863 -40.02649,1.51989 -59.78352,4.80139 l -3.57027,0.59093 c -10.97118,2.04231 -21.86897,4.46084 -32.67411,7.25134 l -2.51149,0.61557 c -10.48343,2.59388 -20.84024,5.67504 -31.03671,9.23345 1.44041,4.32126 2.5238,4.89989 6.15563,7.46063 8.82717,6.64808 16.43554,14.35495 20.92917,24.54868 v 2.46225 c -4.133,-1.50377 -8.06199,-3.51788 -11.69572,-5.9956 -21.70477,-14.40418 -44.16053,-26.96167 -69.55867,-33.40046 l -4.22278,-1.18188 c -37.4755,-9.14729 -75.20953,0.65249 -107.89596,19.341 -27.55263,16.90337 -50.587,42.44926 -66.39467,70.48201 l -1.50199,2.62231 c -17.32195,30.61813 -27.36794,66.18539 -26.71545,101.54335 0.25854,22.83742 0.25854,22.83742 -4.21045,28.25437 -3.712,3.00289 -7.6931,5.65696 -11.89269,7.92845 -2.32186,1.74586 -4.60412,3.54375 -6.84506,5.39234 l -3.34868,2.74542 c -25.238096,22.22183 -45.243901,55.84392 -47.927764,89.87227 -0.123107,3.2871 -0.147732,6.57421 -0.123107,9.86131 l 0.01226,3.58259 c 0.664812,38.73124 18.725445,70.3589 44.689911,97.83766 l 2.40071,2.56075 c 33.60976,34.69316 80.54032,57.76447 124.40538,76.23137 l 3.53332,1.50199 c 36.1582,15.21672 74.10154,25.11498 112.15568,34.23764 l 2.48687,0.60325 5.09686,1.21881 c 4.40939,0.98981 8.73222,2.33195 12.92684,4.01348 l 2.97933,1.23112 3.09013,1.28037 c 15.95541,6.48804 32.09548,11.60953 48.62951,16.39862 l 4.33357,1.25574 c 7.2144,2.05599 14.40419,3.89036 21.754,5.40465 6.96737,1.48652 13.83094,3.42345 20.54751,5.79861 15.83231,5.24461 32.02163,8.77793 48.32175,12.2374 4.45668,0.94797 8.91335,1.92056 13.37004,2.90546 13.28385,2.86853 25.69361,5.14611 39.3345,4.2474 l 5.51545,-0.17237 c 42.22766,-1.35423 81.18051,-9.75053 111.2077,-41.45204 6.25413,-7.34983 11.38793,-15.31522 16.23856,-23.62533 l 2.46226,-4.18584 c 11.8065,-21.36004 18.22068,-46.51197 24.86877,-69.86645 1.18187,-4.12428 2.27758,-7.28827 4.67828,-10.89547 2.85622,6.78352 2.74541,12.93915 2.62229,20.16586 l -0.0369,3.44715 -0.12311,8.39629 c 16.30012,-9.99675 32.1201,-20.9661 46.78283,-33.24043 l 3.77955,-3.13937 c 20.75681,-17.30965 41.24276,-35.715 57.7768,-57.18586 l 2.83159,-3.47176 c 19.14402,-23.88387 35.2841,-51.62115 42.7201,-81.47599 l 0.96028,-3.71801 c 2.49919,-10.41533 3.34867,-20.43671 3.28711,-31.09827 -0.0122,-2.57305 0.0247,-5.1461 0.0615,-7.71917 0.14773,-29.87944 -11.85576,-56.38561 -32.69874,-77.49944 -9.62741,-9.99674 -9.62741,-9.99674 -22.0864,-14.15796 l -0.73869,2.00675 c -7.7561,21.0892 -16.64483,40.89804 -37.42626,52.01511 -9.13497,4.19814 -18.39303,5.35539 -28.31591,6.30337 l 0.76329,2.16678 c 1.87132,5.41695 3.42252,10.5877 4.16121,16.30011 -5.39332,-2.87299 -10.51881,-6.22269 -15.31523,-10.00904 -11.25249,-8.54402 -23.31755,-15.75843 -35.55494,-22.80048 -36.68759,-21.18769 -67.56425,-48.78956 -79.50618,-90.98029 -10.09524,-38.80511 -7.68223,-81.25437 12.07736,-116.46462 10.88316,-18.42996 25.09036,-30.91358 45.66249,-37.21695 25.75517,-5.20767 49.98376,5.54006 70.94986,19.39025 l 2.91777,2.00673 C 781.467,289.22393 761.71973,263.86271 739.42402,248.87989 697.22097,222.85382 649.404,232.986 611.65765,261.3881 Z"
       id="path2"
       sodipodi:nodetypes="cccccccccccccccccccccccccccccccccccccccccccccccccccccccccccccccccccccccccccccccccccccccccccccccccccccccccccccccccccccccccccccccccccccccccccccccccccccccccccccccccccccccccccccccccccccccccccccccc"
       style="stroke-width:1.23113" />
    <path
       fill="#b44422"
       d="m 340.42814,32.016765 2.7208,-0.07387 c 6.79581,0.01231 12.75447,1.058769 17.97446,5.835541 5.61394,6.278749 10.24297,13.456212 15.00743,20.399776 l 2.62231,3.804182 a 6204.3382,6204.3382 0 0 1 11.42484,16.583276 c 2.7208,3.939609 5.42928,7.903842 8.13776,11.855758 l 6.52496,9.479671 a 10830.445,10830.445 0 0 1 45.53939,66.690161 l 2.2899,3.37328 c 7.06667,10.3784 14.17027,20.73218 21.5078,30.92591 a 711.3821,711.3821 0 0 1 26.67851,39.56843 l -3.53333,-0.72637 c -19.3287,-3.84112 -38.27574,-6.0079 -58.02301,-5.42927 l -2.75774,0.0493 c -24.86875,0.50476 -49.55286,4.5921 -73.57213,11.03091 l -2.70849,0.70173 c -26.74008,7.01744 -52.9754,18.22069 -77.31477,31.30756 l -2.88083,1.5143 a 336.31927,336.31927 0 0 0 -41.43974,25.5705 l -2.46226,1.7482 c -12.84064,9.1719 -24.41325,19.25483 -35.70269,30.2611 l -3.49639,3.34866 a 223.89276,223.89276 0 0 0 -19.89502,22.505 l -3.04088,3.81651 a 312.46003,312.46003 0 0 0 -20.35052,29.42392 l -2.0683,3.21325 c -5.26922,8.37165 -8.98722,17.19885 -12.70523,26.3338 h -2.46225 a 522.88425,522.88425 0 0 1 -8.69177,-50.94402 l -1.82206,-14.03486 -0.44321,-3.47178 c -1.30499,-10.0583 -2.72079,-20.10429 -4.18582,-30.13799 -0.78792,-5.51544 -1.55123,-11.0309 -2.31452,-16.54634 a 4224.0583,4224.0583 0 0 0 -8.47016,-58.99561 c -2.22833,-14.71196 -4.41974,-29.42393 -6.46341,-44.16052 l -0.60325,-4.24739 a 457.42523,457.42523 0 0 1 -2.70849,-24.91801 l -0.36933,-4.03811 c -0.800233,-16.18932 8.54402,-27.47876 18.83624,-39.05134 l 3.11474,-3.60721 c 8.42092,-9.61509 17.71593,-17.94982 27.66343,-25.93984 l 2.28989,-1.84669 c 13.23462,-10.538458 27.3064,-19.390261 42.03068,-27.70036 l 3.12706,-1.760516 c 43.23719,-24.19164 93.12245,-40.996526 142.9954,-41.71058 z"
       id="path3"
       style="stroke-width:1.23113" />
    <path
       fill="#142a2c"
       d="m 708.53512,631.64947 h 2.56074 c 11.64646,-0.0246 22.86202,0.73868 34.36075,2.67155 15.06899,2.46225 30.75355,3.11475 45.44089,-1.55123 3.164,-0.86178 5.86017,-0.94796 9.12265,-0.81254 -0.56632,6.05715 -1.78513,9.28269 -6.15562,13.5424 -8.93799,5.88479 -16.79257,8.81487 -27.49107,8.64251 -9.76284,-0.29546 -9.76284,-0.29546 -18.50384,3.23786 -2.01905,3.32405 -3.21324,6.59885 -4.4813,10.27992 a 1614.0075,1614.0075 0 0 1 -3.29942,6.72195 c -12.04042,25.1273 -20.26436,53.13544 -25.48434,80.42953 -13.46851,69.84183 -13.46851,69.84183 -34.00372,93.82418 l -2.48688,3.02857 c -22.56656,26.46924 -57.37052,37.73404 -91.07877,41.292 -21.72939,1.60047 -42.69549,-0.83716 -64.0186,-4.92451 L 520.185,887.5146 c -42.59699,-7.9654 -86.35125,-26.71547 -120.28112,-53.65252 l -3.41021,-2.65923 c -9.35657,-7.58376 -17.9129,-15.9431 -26.44461,-24.42557 l -3.44715,-3.41022 A 274.09811,274.09811 0 0 1 345.7343,779.69249 l -1.79744,-2.22834 A 286.95107,286.95107 0 0 1 326.7257,753.67878 l -1.72357,-2.6223 c -3.04089,-4.73984 -5.7863,-9.51661 -8.2978,-14.57655 -6.04484,-12.80372 -6.04484,-12.80372 -17.1496,-20.73218 -3.36098,-1.05877 -6.75888,-1.9698 -10.1568,-2.88083 -5.18305,-1.66203 -9.89825,-4.24739 -14.68735,-6.80813 l -2.96701,-1.58815 c -8.61789,-4.67829 -16.62021,-10.03369 -24.49943,-15.88155 -4.97375,1.89595 -7.3252,5.09688 -10.53844,9.23346 -2.97933,3.81649 -5.12149,6.54959 -9.15959,9.23345 -3.34866,-3.34867 -2.90545,-5.33078 -3.00394,-10.00907 0.14773,-7.8669 1.56353,-12.40975 6.69732,-18.30685 l 1.89595,-2.2899 c 7.20208,-7.97771 16.69407,-13.20999 27.52799,-13.88711 5.72474,0.36934 9.84901,2.75773 14.2072,6.32799 1.92056,2.46225 1.92056,2.46225 1.92056,6.15564 l -2.64693,0.49245 -3.43484,0.66481 -3.41022,0.64018 c -2.75772,0.39397 -2.75772,0.39397 -4.0504,1.89594 53.65251,37.01999 121.85694,46.4258 185.2846,35.44414 50.36541,-9.33193 95.9048,-27.83578 141.96126,-49.44206 28.8453,-13.54239 58.31849,-26.83856 90.10618,-31.55378 l 4.28433,-0.67712 c 7.85458,-0.94797 15.75842,-0.84947 23.63763,-0.86179 z"
       id="path4"
       style="stroke-width:1.23113" />
    <path
       fill="#17272b"
       d="m 392.24628,429.04291 c 20.9784,17.97445 34.91475,44.81301 37.20467,72.41488 1.85899,34.31152 -4.57981,65.04044 -27.70037,91.47274 a 57.21047,57.21047 0 0 1 -12.92683,10.7108 l -3.16399,1.90824 c -20.64601,11.351 -44.07435,13.41929 -66.67785,7.17747 -16.01695,-4.91219 -28.19281,-13.1238 -39.72846,-25.09036 l -3.02857,-2.95471 c -21.58167,-22.13566 -27.22022,-52.79072 -27.12173,-82.60861 0.56632,-25.48433 9.11033,-49.36819 26.45691,-68.32755 l 2.05599,-2.35145 c 31.04902,-33.57284 81.10664,-28.62371 114.63023,-2.35145 z"
       id="path5"
       style="stroke-width:1.23113" />
    <path
       fill="#ebe2bc"
       d="m 403.5234,397.75997 c 22.01255,18.04832 37.75866,41.73521 45.01,69.33707 0.56632,2.15447 1.1819,4.30894 1.80975,6.4388 5.50315,21.95099 4.76447,47.98933 -1.19417,69.78027 l -0.61558,2.38839 c -8.27316,31.4676 -26.85088,60.28829 -54.78515,77.63486 l -3.44715,2.21603 c -9.11034,5.62625 -18.33148,9.45506 -28.56215,12.55749 l -3.80418,1.1942 c -28.82069,7.65761 -61.53173,3.164 -87.3977,-11.32637 A 140.9148,140.9148 0 0 1 241.0885,604.87246 l -3.25016,-3.21324 c -24.89339,-25.80442 -35.43185,-62.3689 -35.21024,-97.57913 0.75099,-38.49734 14.82277,-73.85531 42.15378,-101.11246 a 131.05346,131.05346 0 0 1 48.01397,-28.31591 l 3.44715,-1.1942 c 36.44136,-10.5877 78.38585,1.14494 107.2804,24.30245 z m -132.00144,40.49176 c -20.25202,26.4446 -24.89338,56.31175 -21.44622,88.87506 3.42253,24.59791 14.47804,45.2193 31.63996,62.97215 l 2.75773,2.89314 c 15.80766,15.47527 37.56168,22.83741 59.41418,23.57608 19.36564,-0.64019 40.59026,-6.42647 54.87133,-20.16585 20.37515,-22.43114 31.246,-49.31895 31.07364,-79.77703 l -0.0122,-3.91498 c -0.4925,-30.75356 -12.01584,-57.92453 -33.4867,-80.14637 -18.59002,-17.30964 -42.52312,-25.77979 -67.68736,-25.05344 -23.29292,1.31731 -42.32614,13.48085 -57.1243,30.74124 z"
       id="path6"
       style="stroke-width:1.23113" />
    <path
       fill="#118e85"
       d="m 167.22089,411.58552 c 1.82207,3.63183 0.36934,6.24181 -0.66481,9.99676 -8.91336,32.9942 -11.59721,70.66669 -6.18026,104.49806 l 0.48014,2.99163 a 190.9478,190.9478 0 0 0 2.52381,12.63136 c 0.81255,4.30895 1.18189,7.17747 0.14775,11.4618 -4.09967,5.05993 -8.80257,8.9626 -13.87482,13.01301 -16.46016,13.59164 -27.26946,33.94217 -31.67689,54.69898 -3.44716,40.50407 8.80256,73.60907 34.6316,104.69503 12.21279,14.46574 25.48432,27.73729 40.46715,39.34682 l 3.36097,2.70847 c 19.2179,15.30292 40.23323,28.43904 61.31013,41.00885 3.44715,2.09291 6.86968,4.21045 10.29221,6.3403 15.3891,9.47968 30.81512,17.85134 47.45995,24.9057 4.65366,2.01905 9.23346,4.18584 13.81325,6.36493 2.93007,1.39117 2.93007,1.39117 6.57422,1.15725 l -2.67155,-2.40069 a 683.68174,683.68174 0 0 1 -28.10663,-27.14636 l 1.23113,-2.46224 2.11754,2.17908 c 27.70035,28.36517 54.68665,45.1085 91.96518,59.37726 3.44716,1.32962 6.86969,2.70848 10.30453,4.07503 13.48085,5.39233 26.93707,10.36609 40.88573,14.39188 -4.94912,1.98211 -9.20882,0.38164 -14.09641,-1.03414 l -2.70847,-0.76331 c -2.89315,-0.82486 -5.7863,-1.66202 -8.66714,-2.5115 l -2.95471,-0.86179 c -13.92403,-4.01347 -27.30639,-8.55633 -40.51637,-14.5273 a 160.24349,160.24349 0 0 0 -22.66506,-7.26364 c -0.86178,-0.19699 -1.72357,-0.41859 -2.6223,-0.64019 -5.66318,-1.39117 -11.32636,-2.75773 -16.98955,-4.09966 -64.92964,-15.59837 -128.56659,-38.50964 -184.48438,-75.64044 l -2.09292,-1.37886 c -15.1798,-10.09524 -28.7468,-21.64321 -41.99374,-34.0899 l -2.41301,-2.21603 C 83.824353,726.13846 68.028986,690.4604 67.081026,655.39791 c -0.160053,-13.09919 1.144945,-24.54867 5.343087,-36.98306 l 0.824853,-2.48688 C 79.4046,597.54725 88.244095,581.5426 100.74003,566.70752 l 1.72358,-2.04367 a 160.6867,160.6867 0 0 1 26.30919,-24.49942 l 1.99442,-1.53891 a 87.397705,87.397705 0 0 1 6.13102,-4.01347 c 4.99836,-5.5647 4.18582,-10.93241 4.08733,-18.14682 0.0369,-2.90545 0.0861,-5.7986 0.14775,-8.69176 l 0.0861,-4.44436 c 0.86178,-24.93032 4.23507,-69.55868 23.53914,-88.05021 z"
       id="path7"
       style="stroke-width:1.23113" />
    <path
       fill="#e5583a"
       d="m 582.11069,782.15474 a 107.03418,107.03418 0 0 1 12.31126,9.84902 l 2.81928,2.47456 c 13.69013,12.72986 27.09711,33.89293 28.09432,53.17237 l -0.0122,2.89316 -0.0122,3.15168 -0.0369,3.25018 -0.0122,3.32404 -0.0615,8.06388 c -52.51989,20.73218 -115.20888,4.89989 -164.9341,-16.34937 -25.58281,-11.33867 -47.34914,-26.17375 -67.74891,-45.20698 1.69895,-3.07782 1.69895,-3.07782 3.69338,-6.15562 h 2.46226 l 0.88641,-2.12986 c 7.76841,-13.78862 25.31197,-21.69246 39.74078,-26.18607 23.56377,-6.53728 50.58701,2.49919 71.40535,13.54239 10.23067,5.97097 19.26714,13.3208 28.31594,20.92916 l 6.15563,4.92451 c -7.23922,-17.11266 -20.0183,-29.36238 -36.93399,-36.93381 v -2.46225 c 26.34611,-9.09803 50.32847,-4.30894 73.86762,9.84901 z"
       id="path9"
       style="stroke-width:1.23113" />
    <path
       fill="#91302f"
       d="m 706.36833,648.87294 a 2554.0099,2554.0099 0 0 1 17.18653,0 c 3.63182,0.30778 5.70012,0.8741 8.75331,2.78234 l -1.89594,3.65645 c -17.26038,33.67132 -26.7647,69.25089 -34.10221,106.17239 -10.02137,50.19305 -10.02137,50.19305 -21.86482,66.22232 h -2.46224 l -0.60326,-2.58536 c -4.98607,-18.63927 -14.60116,-37.40164 -27.71267,-51.58422 l -2.72079,-3.11476 c -2.74541,-3.10244 -5.54007,-6.15563 -8.35935,-9.19652 l -2.24066,-2.48687 c -25.09036,-26.66621 -58.49084,-37.7956 -93.78725,-43.06482 v -4.9245 c 19.52569,-10.5877 39.50688,-20.23974 59.52499,-29.85484 3.63183,-1.73588 7.23903,-3.4964 10.84624,-5.25691 31.04901,-15.11824 64.60953,-26.98631 99.43812,-26.7647 z"
       id="path10"
       style="stroke-width:1.23113" />
    <path
       fill="#142628"
       d="m 350.6588,356.18481 4.59211,0.91104 c 25.64438,5.52775 46.73358,17.93751 65.58213,36.02277 l 3.06552,2.83159 c 27.49106,26.17377 42.90477,64.6711 43.96354,102.38052 0.20929,15.75843 -0.55401,30.8028 -3.93961,46.21651 l -0.61556,2.83159 c -3.22556,14.08409 -8.4086,26.41998 -15.38909,39.02672 l -1.79745,3.39792 c -5.15841,9.25807 -12.06504,17.07573 -19.13171,24.918 l -2.7331,3.05319 c -22.62812,23.88387 -56.06553,39.1991 -88.87505,40.34404 -39.05136,0.72637 -72.84579,-11.72033 -101.26021,-38.79281 -17.58048,-17.22346 -29.69477,-36.67528 -37.73403,-59.93126 l -0.86178,-2.43763 c -5.39234,-16.5956 -6.83276,-33.62208 -6.68502,-50.96866 l 0.0122,-2.8316 c 0.24623,-42.78165 16.20163,-81.51291 46.08108,-112.50037 30.87667,-30.12569 73.3998,-43.21257 115.72593,-34.47156 z m -99.72128,41.85832 -2.89315,2.28989 c -25.73055,21.2985 -41.11964,55.27761 -44.81302,88.03789 -0.13542,2.31453 -0.24622,4.61672 -0.30777,6.93125 l -0.0985,2.46225 c -1.4158,40.38096 10.20604,77.1178 37.84484,106.94801 14.34263,15.05667 33.20349,27.68804 53.35704,33.40046 l 3.8165,1.10803 c 30.12568,7.38675 62.70129,3.38559 89.69991,-11.76958 31.76307,-19.51336 52.32289,-48.34636 61.6056,-84.13522 l 1.19419,-4.35819 c 5.08454,-21.97561 5.12148,-47.82928 -1.19419,-69.50943 l -1.26807,-4.82602 c -9.44275,-34.24994 -33.42509,-62.54125 -63.98167,-80.12174 -43.23718,-23.61301 -95.51083,-17.3712 -132.96172,13.5424 z"
       id="path11"
       style="stroke-width:1.23113" />
    <path
       fill="#f1e9c3"
       d="m 766.77973,320.48213 c 38.02952,26.14914 57.49362,72.29177 65.96379,116.25532 4.83833,29.54705 3.15168,59.02022 -14.20721,84.2337 -8.24855,10.15681 -20.17818,17.16191 -33.28967,18.65158 -5.86017,0.3324 -11.52335,0.24623 -17.23578,-1.23113 a 109.85346,109.85346 0 0 1 4.09965,-7.71917 c 15.68455,-26.93705 17.72823,-62.93521 10.46457,-93.04857 a 167.1378,167.1378 0 0 0 -9.63972,-26.03834 l -2.00673,-4.40743 c -11.78189,-24.74565 -29.32544,-46.41348 -55.85623,-55.91778 -15.38909,-3.20093 -28.02045,-0.93567 -41.85832,6.15562 5.29384,-17.2727 16.58328,-32.09548 32.14472,-41.27968 21.18769,-10.80929 41.36587,-7.65762 61.42093,4.34588 z"
       id="path12"
       style="stroke-width:1.23113" />
    <path
       fill="#96d7a5"
       d="m 244.78188,687.35797 a 45.305473,45.305473 0 0 1 11.94194,6.42647 c 12.59442,8.9503 27.02323,17.03881 41.79676,21.68015 7.71917,2.4992 10.89547,5.36772 14.69966,12.53288 l 1.66202,3.37329 c 1.23114,2.33914 2.49918,4.67828 3.75494,7.01742 l 1.8713,3.50872 c 7.68224,13.8871 17.75286,26.69082 27.68806,39.02671 l 1.55122,1.94518 c 18.31916,22.68967 39.34681,44.13591 64.16634,59.61118 6.40186,4.1612 10.18141,8.70407 14.39187,15.01974 3.9396,5.72474 8.69176,10.71081 13.45622,15.75843 l 2.09291,2.2899 c 9.7259,10.2799 22.00025,18.036 33.60977,26.02602 -4.85063,1.87132 -8.34705,0.55401 -13.20999,-0.91103 l -2.46227,-0.73868 c -2.64691,-0.78792 -5.29384,-1.60046 -7.95306,-2.42532 l -2.74542,-0.84948 A 483.95601,483.95601 0 0 1 404.68066,879.66 622.33469,622.33469 0 0 0 394.1299,875.37567 c -44.8992,-17.87596 -44.8992,-17.87596 -58.24461,-30.43345 l -2.7208,-2.33915 c -15.069,-13.04994 -29.47317,-27.36794 -41.59978,-43.21254 l -2.9547,-3.73032 c -19.45181,-24.61023 -36.69989,-51.89201 -44.98538,-82.3624 -0.24622,-0.96028 -0.51707,-1.89593 -0.78793,-2.88084 -1.58814,-6.25412 -2.9547,-12.92683 -1.7482,-19.36562 1.87133,-2.16678 1.87133,-2.16678 3.69338,-3.69338 z"
       id="path13"
       style="stroke-width:1.23113" />
    <path
       fill="#532b2c"
       d="m 606.73322,757.22442 a 202.15105,202.15105 0 0 1 7.38677,6.46342 l 2.25296,2.04367 c 20.96608,19.25483 38.2388,44.84996 44.52986,73.05508 -0.61556,6.84507 -4.38281,10.99395 -9.45505,15.29059 -4.469,3.37329 -8.54402,5.20767 -13.93636,6.86968 l -0.13543,-3.74261 c -1.14494,-25.65669 -8.61788,-46.32731 -24.48711,-66.43161 l -2.5115,-3.20094 c -15.63532,-18.71313 -41.21813,-31.27063 -65.20049,-34.964 -15.7338,-1.02184 -30.77818,0.0739 -44.93613,7.69454 -7.15284,3.57027 -13.41929,2.24064 -20.9661,0.34472 -9.11033,-2.04367 -17.80209,-2.52382 -27.12172,-2.49919 l -4.51824,-0.1108 c -20.55982,-0.0369 -38.75588,9.82439 -53.55402,23.67457 a 103.90712,103.90712 0 0 0 -9.72591,11.94194 l -1.68663,2.04367 c -2.46227,0 -2.46227,0 -4.2474,-1.76051 -0.67712,-0.81255 -1.35424,-1.63741 -2.06829,-2.46227 -3.3856,-4.02578 -3.3856,-4.02578 -6.91893,-7.92845 -12.2251,-13.08688 -22.61581,-28.16818 -32.24322,-43.24949 l -1.60046,-2.47456 c -1.23113,-1.99443 -2.33914,-4.06273 -3.39791,-6.14334 l 1.23112,-3.69338 2.41301,0.56632 c 20.59676,4.61673 40.38097,6.19258 61.45786,6.13102 h 3.48409 c 13.88712,-0.0369 27.25716,-0.78792 40.98422,-3.00396 3.4964,-0.54168 7.00511,-1.05876 10.5015,-1.58814 l 2.70849,-0.40628 c 51.92893,-7.80534 107.72362,-4.85063 151.76102,27.54031 z"
       id="path14"
       style="stroke-width:1.23113" />
    <path
       fill="#91312f"
       d="m 511.93645,262.61915 c 2.46224,2.46227 2.46224,2.46227 2.70848,5.39234 l -0.0861,3.3856 -0.0739,3.38561 -0.0861,2.60998 c -4.12428,2.43763 -7.60837,2.93008 -12.36052,3.29942 l -4.50592,0.36934 -4.83833,0.40627 a 367.31904,367.31904 0 0 0 -78.01651,15.623 l -2.75774,0.86179 c -10.1691,3.21324 -10.1691,3.21324 -19.99349,7.3129 -8.51941,3.2871 -14.79814,1.39117 -22.87434,-1.78513 -15.5122,-5.7863 -31.31986,-9.09803 -47.94009,-8.97492 a 271974700,271974700 0 0 1 -16.8172,0.0615 l -13.96098,0.0615 c 3.57028,-3.80418 7.59606,-5.94636 12.23741,-8.23625 l 2.60999,-1.29267 C 361.76368,257.6946 451.796,231.65625 511.93656,262.6191 Z"
       id="path15"
       style="stroke-width:1.23113" />
    <path
       fill="#b64234"
       d="m 514.7311,788.37194 c 4.27202,3.05319 8.37167,6.26643 10.74774,11.01859 l -2.11754,0.65249 c -20.71987,6.46342 -37.05692,13.49315 -53.28318,28.1928 a 33.634389,33.634389 0 0 1 -8.61788,5.62626 l -1.23114,2.46225 c -1.5389,3.06551 -3.04087,3.68107 -6.15562,4.9245 v 2.46227 c -2.84391,0.9849 -4.39512,1.41579 -7.28828,0.41858 l -2.44994,-1.36655 -2.74541,-1.5266 -2.90547,-1.68664 -2.97932,-1.68665 a 156.84558,156.84558 0 0 1 -20.4367,-14.08409 c -2.90547,-2.32684 -2.90547,-2.32684 -6.08176,-3.37329 -4.16122,-1.7482 -7.06668,-4.55517 -10.27993,-7.63299 l -1.8713,-1.73588 a 736.8295,736.8295 0 0 1 -4.51824,-4.25971 c 1.69895,-3.07782 1.69895,-3.07782 3.69338,-6.15562 h 2.46226 l 0.8864,-2.12986 c 7.76841,-13.78862 25.31197,-21.69246 39.74079,-26.18607 24.49943,-6.80813 54.56354,2.99164 75.43114,16.06621 z"
       id="path16"
       style="stroke-width:1.23113" />
    <path
       fill="#ece4be"
       d="m 376.58635,452.82828 c 7.6453,4.21045 12.58211,11.69571 15.26597,19.90732 1.87131,8.0885 3.48409,16.7064 -0.0985,24.49943 -2.52381,4.01347 -4.8014,6.90662 -9.08571,9.14727 -6.03253,0.97258 -10.77236,0.73868 -16.31243,-1.92055 -9.14728,-8.11314 -14.51499,-16.30013 -16.16471,-28.69757 -0.36933,-8.6179 1.45274,-15.35216 7.17747,-21.90175 5.44159,-4.71522 13.03765,-3.73032 19.2179,-1.03415 z"
       id="path17"
       style="stroke-width:1.23113" />
    <path
       fill="#138e87"
       d="m 478.30206,349.48748 c 10.2799,1.95749 18.06063,9.04878 25.0165,16.54635 4.85064,7.36213 6.84506,14.61347 6.15562,23.39141 -1.35423,4.80139 -1.90824,5.78629 -6.15562,8.61789 -7.28828,1.24344 -13.29617,0.7756 -19.5503,-3.31174 a 79.198399,79.198399 0 0 1 -11.22787,-10.23066 l -2.62231,-2.8439 c -4.61672,-6.63578 -6.84507,-13.49315 -6.48804,-21.63091 1.53891,-8.15005 6.93124,-11.154 14.87202,-10.53844 z"
       id="path18"
       style="stroke-width:1.23113" />
    <path
       fill="#f1e9c5"
       d="m 727.69145,388.96971 c 5.7863,0.16006 8.82718,1.47736 13.23461,5.38004 9.36887,10.40301 13.20999,20.17817 12.80372,34.22532 -0.65249,5.26923 -1.69896,7.60836 -5.41695,11.32638 -4.45669,1.47735 -7.63299,1.62508 -12.31128,1.23113 -9.87363,-5.04763 -15.45063,-13.08688 -18.83623,-23.41604 -1.8467,-7.87922 -2.04368,-15.32753 0.82485,-22.89897 3.02857,-4.43206 4.39512,-5.76167 9.70128,-5.84786 z"
       id="path19"
       style="stroke-width:1.23113" />
    <path
       fill="#13292b"
       d="m 625.20013,556.43993 c 6.94355,2.44994 12.54518,6.04483 16.00465,12.72985 0.92335,3.80418 0.65249,5.82323 0,9.84901 -2.21602,3.45948 -3.71801,5.54007 -7.38676,7.38676 -12.28666,0.87411 -24.3517,1.31731 -34.39769,-6.86969 -3.64414,-3.74262 -4.89989,-5.94634 -5.61394,-11.20324 0.80023,-5.29386 1.35424,-7.7438 5.70011,-10.95704 7.54681,-3.73032 17.60512,-2.70848 25.68132,-0.93565 z"
       id="path20"
       style="stroke-width:1.23113" />
    <path
       fill="#138f88"
       d="m 514.39869,324.17551 c 8.45785,3.0532 14.07179,8.23624 18.46691,16.00465 2.48687,6.15564 2.96702,10.78467 1.23113,17.23577 -2.7331,3.13938 -4.23507,3.64414 -8.37166,3.96423 -7.65761,-0.52938 -14.65041,-4.73983 -19.94426,-10.21834 -5.17074,-6.72196 -6.86969,-12.24973 -6.15564,-20.83067 2.54843,-7.10361 7.87921,-7.16517 14.77352,-6.15564 z"
       id="path21"
       style="stroke-width:1.23113" />
    <path
       fill="#138e87"
       d="m 534.09673,382.03847 c 6.68501,3.41023 10.56307,7.99002 13.5424,14.77353 0.73867,4.96144 0.73867,7.34983 -1.77283,11.69571 -4.16121,2.43763 -6.85738,2.14215 -11.54798,1.35423 -4.03808,-1.108 -6.08176,-2.49918 -8.83948,-5.66318 -3.8165,-6.74657 -4.23507,-12.22509 -2.46225,-19.69803 2.83158,-4.92451 6.04483,-3.93961 11.08014,-2.46226 z"
       id="path23"
       style="stroke-width:1.23113" />
    <path
       fill="#13282a"
       d="m 742.53884,552.62343 c 4.72752,0.77562 6.45111,3.10244 9.46737,6.69733 2.11753,6.3403 2.01905,11.59721 -0.46783,17.70361 -1.99444,3.22555 -1.99444,3.22555 -4.45668,5.6878 -3.45947,0.5417 -3.45947,0.5417 -7.38677,0 -3.45946,-3.00394 -3.45946,-3.00394 -6.15563,-6.15563 l -1.23113,-1.23113 c -0.68943,-7.8669 0.6525,-13.04994 4.92451,-19.69803 2.46225,-2.46225 2.46225,-2.46225 5.30616,-3.00395 z"
       id="path24"
       style="stroke-width:1.23113" />
    <path
       fill="#091011"
       d="m 742.1572,772.30573 c 4.0504,4.05041 3.75492,8.58095 3.81648,14.07178 a 968.57684,968.57684 0 0 1 -0.0615,9.13496 l -0.0615,7.57143 -2.46225,1.23113 v -27.08479 h -2.46225 l -0.6525,2.4007 c -8.43322,31.09826 -17.07574,60.9654 -33.81906,88.70269 l -2.46225,-1.23112 1.89593,-3.12706 c 14.47806,-24.27783 22.57886,-51.95357 30.12568,-79.06298 1.40348,-4.88758 2.62229,-8.76562 6.14333,-12.60674 z"
       id="path31"
       style="stroke-width:1.23113" />
    <path
       fill="#0a1414"
       d="m 696.60549,511.30682 c 4.19814,1.88361 7.48525,4.3828 11.08015,7.23902 9.55354,7.26365 19.84576,13.20999 30.18722,19.27944 a 440.52186,440.52186 0 0 1 44.91152,30.11337 l -1.23112,-12.31127 c 4.03808,4.0381 4.18583,4.72753 4.54285,10.08293 l 0.24622,3.36097 0.13543,2.56074 c -5.39234,-1.09569 -8.9626,-4.01346 -13.23461,-7.31288 a 343.05354,343.05354 0 0 0 -35.01326,-22.76355 368.16852,368.16852 0 0 1 -27.23253,-17.08803 l -2.65923,-1.84669 c -4.6906,-3.32405 -8.35936,-6.54959 -11.73264,-11.31405 z"
       id="path32"
       style="stroke-width:1.23113" />
    <path
       fill="#8b2d29"
       d="m 181.99441,91.492511 2.46226,1.231119 -0.59094,3.077823 c -2.37608,16.066207 -0.17236,31.172127 3.34867,46.844387 1.84669,8.4209 3.55795,16.86643 5.29384,25.29965 0.61556,3.10244 1.26805,6.20489 1.90824,9.29501 2.33914,11.2402 4.4813,22.50501 6.43881,33.81906 1.18187,6.73427 2.46224,13.45622 3.76724,20.16586 l 0.7756,4.07503 c 1.32963,6.89431 2.68386,13.75169 4.08735,20.62138 a 764.08665,764.08665 0 0 1 7.42369,41.09502 c 0.6525,4.33357 1.57585,8.56865 2.56074,12.85296 0.96029,5.19536 0.96029,5.19536 -1.23112,9.23346 l -3.00395,2.60998 -4.2597,4.2597 c -2.21602,2.21603 -4.44437,4.40743 -6.68502,6.59884 -9.67665,9.52893 -18.95935,18.97168 -27.22022,29.76865 l -3.00394,3.77957 a 292.03563,292.03563 0 0 0 -25.31197,38.07875 l -2.46226,-1.23113 c -0.57863,-2.26528 -0.57863,-2.26528 -0.94797,-5.26922 l -0.45552,-3.43484 -0.46782,-3.77956 -0.49245,-3.93961 a 15500.011,15500.011 0 0 0 -4.51824,-35.40722 4464.4973,4464.4973 0 0 0 -6.27874,-46.57353 c -1.42812,-10.36608 -2.8316,-20.71986 -4.01347,-31.11057 -1.56353,-13.7517 -3.61952,-27.45414 -5.60164,-41.15658 l -4.30894,-30.00256 -0.41859,-2.89315 c -5.21998,-36.56447 -5.21998,-36.56447 1.26807,-47.43532 2.36375,-3.04089 2.36375,-3.04089 5.30615,-6.30337 l 1.82206,-2.09292 c 6.82045,-7.79304 13.89943,-15.26598 21.86482,-21.91406 a 101.22326,101.22326 0 0 0 6.47573,-6.15564 c 3.73032,-3.80417 7.66992,-7.27596 11.70803,-10.74773 3.20093,-2.85622 6.19256,-5.884793 9.17189,-8.974923 1.89593,-1.822065 1.89593,-1.822065 5.58931,-4.284316 z"
       id="path8"
       style="stroke-width:1.23113" />
  </g>
  <g
     inkscape:groupmode="layer"
     id="layer1"
     inkscape:label="Lijnen" />
</svg>
