<?xml version="1.0" encoding="UTF-8" standalone="no"?>
<svg
   width="951"
   height="950"
   version="1.1"
   id="svg288"
   sodipodi:docname="fez-layer1.svg"
   inkscape:version="1.4 (e7c3feb1, 2024-10-09)"
   xmlns:inkscape="http://www.inkscape.org/namespaces/inkscape"
   xmlns:sodipodi="http://sodipodi.sourceforge.net/DTD/sodipodi-0.dtd"
   xmlns="http://www.w3.org/2000/svg"
   xmlns:svg="http://www.w3.org/2000/svg">
  <defs
     id="defs288" />
  <sodipodi:namedview
     id="namedview288"
     pagecolor="#ffffff"
     bordercolor="#666666"
     borderopacity="1.0"
     inkscape:showpageshadow="2"
     inkscape:pageopacity="0.0"
     inkscape:pagecheckerboard="0"
     inkscape:deskcolor="#d1d1d1"
     inkscape:zoom="0.6549283"
     inkscape:cx="506.92572"
     inkscape:cy="431.34493"
     inkscape:window-width="1728"
     inkscape:window-height="990"
     inkscape:window-x="0"
     inkscape:window-y="34"
     inkscape:window-maximized="0"
     inkscape:current-layer="svg288" />
  <g
     inkscape:groupmode="layer"
     id="layer3"
     inkscape:label="Fez">
    <path
       fill="#162b2e"
       d="m 364.20121,15.162636 c 31.93005,27.124808 111.32694,159.435174 147.73524,206.595424 5.33403,7.18039 10.4899,14.49139 15.46295,21.92637 l 1.92056,2.83159 c 4.97375,7.48525 7.58374,12.75447 7.47294,21.95099 l -0.0246,4.28432 C 514.97285,360.75599 162.99507,462.56471 126.59369,463.29279 h -2.46226 l -0.38164,-2.93008 c -0.95301,-4.65872 -2.21566,-9.2487 -3.77957,-13.73938 -0.72012,-3.00475 -0.97752,-6.10179 -0.76329,-9.1842 l -2.46225,-1.23114 c -3.37039,-23.72715 -5.82841,-47.59165 -8.6179,-71.40535 0,0 -5.77983,-34.88225 -7.7684,-49.86065 l -0.443215,-3.20093 c -4.804277,-32.80967 -2.595536,-17.69562 -9.491989,-63.96935 l -0.467827,-2.70848 c -1.23113,-6.64809 -5.409972,-29.13631 -5.835539,-37.77098 -0.34472,-6.30337 -0.34472,-6.30337 -1.846692,-12.38513 -0.246226,-2.56075 -0.4432,-5.12149 -0.61556,-7.69456 -0.295478,-4.33357 -0.640186,-8.49477 -1.391172,-12.77909 -0.816332,-7.36958 2.559356,-25.49674 10.624617,-34.92708 2.339143,-2.53611 2.339143,-2.53611 4.468993,-5.46619 l 2.191411,-2.91778 c 4.148003,-5.4883 8.391943,-10.72876 13.283843,-15.53682 l 2.33915,-2.33914 2.49919,-2.43763 2.54843,-2.52382 c 8.63058,-8.466456 17.8101,-16.35457 27.47876,-23.613009 10.69267,-7.711547 3.48078,-2.650328 14.13335,-10.415334 24.36406,-17.390927 51.37731,-29.486379 78.79212,-41.168886 7.01741,-3.151686 96.1599,-32.61644736 125.57495,-17.925209 z"
       id="path22"
       sodipodi:nodetypes="ccccccccccccccccccccccccccccccccc"
       style="display:inline;stroke-width:1.23113" />
    <path
       fill="#b44422"
       d="m 340.42814,32.016765 2.7208,-0.07387 c 6.79581,0.01231 12.75447,1.058769 17.97446,5.835541 5.61394,6.278749 10.24297,13.456212 15.00743,20.399776 l 2.62231,3.804182 a 6204.3382,6204.3382 0 0 1 11.42484,16.583276 c 2.7208,3.939609 5.42928,7.903842 8.13776,11.855758 l 6.52496,9.479671 a 10830.445,10830.445 0 0 1 45.53939,66.690161 l 2.2899,3.37328 c 7.06667,10.3784 14.17027,20.73218 21.5078,30.92591 a 711.3821,711.3821 0 0 1 26.67851,39.56843 l -3.53333,-0.72637 c -19.3287,-3.84112 -38.27574,-6.0079 -58.02301,-5.42927 l -2.75774,0.0493 c -24.86875,0.50476 -49.55286,4.5921 -73.57213,11.03091 l -2.70849,0.70173 c -26.74008,7.01744 -52.9754,18.22069 -77.31477,31.30756 l -2.88083,1.5143 a 336.31927,336.31927 0 0 0 -41.43974,25.5705 l -2.46226,1.7482 c -12.84064,9.1719 -24.41325,19.25483 -35.70269,30.2611 l -3.49639,3.34866 a 223.89276,223.89276 0 0 0 -19.89502,22.505 l -3.04088,3.81651 a 312.46003,312.46003 0 0 0 -20.35052,29.42392 l -2.0683,3.21325 c -5.26922,8.37165 -8.98722,17.19885 -12.70523,26.3338 h -2.46225 a 522.88425,522.88425 0 0 1 -8.69177,-50.94402 l -1.82206,-14.03486 -0.44321,-3.47178 c -1.30499,-10.0583 -2.72079,-20.10429 -4.18582,-30.13799 -0.78792,-5.51544 -1.55123,-11.0309 -2.31452,-16.54634 a 4224.0583,4224.0583 0 0 0 -8.47016,-58.99561 c -2.22833,-14.71196 -4.41974,-29.42393 -6.46341,-44.16052 l -0.60325,-4.24739 a 457.42523,457.42523 0 0 1 -2.70849,-24.91801 l -0.36933,-4.03811 c -0.800233,-16.18932 8.54402,-27.47876 18.83624,-39.05134 l 3.11474,-3.60721 c 8.42092,-9.61509 17.71593,-17.94982 27.66343,-25.93984 l 2.28989,-1.84669 c 13.23462,-10.538458 27.3064,-19.390261 42.03068,-27.70036 l 3.12706,-1.760516 c 43.23719,-24.19164 93.12245,-40.996526 142.9954,-41.71058 z"
       id="path3"
       style="stroke-width:1.23113" />
    <path
       fill="#91312f"
       d="m 511.93645,262.61915 c 2.46224,2.46227 2.46224,2.46227 2.70848,5.39234 l -0.0861,3.3856 -0.0739,3.38561 -0.0861,2.60998 c -65.2044,79.93431 -221.93999,117.9082 -333.30531,160.04809 -62.46416,30.33532 -28.44454,-9.21156 -28.44454,-9.21156 3.57028,-3.80418 61.26977,-100.45876 149.92214,-141.83711 l 2.60999,-1.29267 C 361.76368,257.6946 451.796,231.65625 511.93656,262.6191 Z"
       id="path15"
       style="stroke-width:1.23113"
       sodipodi:nodetypes="ccccccccccc" />
    <path
       fill="#8b2d29"
       d="m 181.99441,91.492511 2.46226,1.231119 -0.59094,3.077823 c -2.37608,16.066207 -0.17236,31.172127 3.34867,46.844387 1.84669,8.4209 3.55795,16.86643 5.29384,25.29965 0.61556,3.10244 1.26805,6.20489 1.90824,9.29501 2.33914,11.2402 4.4813,22.50501 6.43881,33.81906 1.18187,6.73427 2.46224,13.45622 3.76724,20.16586 l 0.7756,4.07503 c 1.32963,6.89431 2.68386,13.75169 4.08735,20.62138 a 764.08665,764.08665 0 0 1 7.42369,41.09502 c 0.6525,4.33357 1.57585,8.56865 2.56074,12.85296 0.96029,5.19536 0.96029,5.19536 -1.23112,9.23346 l -3.00395,2.60998 -4.2597,4.2597 c -2.21602,2.21603 -4.44437,4.40743 -6.68502,6.59884 -9.67665,9.52893 -18.95935,18.97168 -27.22022,29.76865 l -3.00394,3.77957 a 292.03563,292.03563 0 0 0 -25.31197,38.07875 l -2.46226,-1.23113 c -0.57863,-2.26528 -0.57863,-2.26528 -0.94797,-5.26922 l -0.45552,-3.43484 -0.46782,-3.77956 -0.49245,-3.93961 a 15500.011,15500.011 0 0 0 -4.51824,-35.40722 4464.4973,4464.4973 0 0 0 -6.27874,-46.57353 c -1.42812,-10.36608 -2.8316,-20.71986 -4.01347,-31.11057 -1.56353,-13.7517 -3.61952,-27.45414 -5.60164,-41.15658 l -4.30894,-30.00256 -0.41859,-2.89315 c -5.21998,-36.56447 -5.21998,-36.56447 1.26807,-47.43532 2.36375,-3.04089 2.36375,-3.04089 5.30615,-6.30337 l 1.82206,-2.09292 c 6.82045,-7.79304 13.89943,-15.26598 21.86482,-21.91406 a 101.22326,101.22326 0 0 0 6.47573,-6.15564 c 3.73032,-3.80417 7.66992,-7.27596 11.70803,-10.74773 3.20093,-2.85622 6.19256,-5.884793 9.17189,-8.974923 1.89593,-1.822065 1.89593,-1.822065 5.58931,-4.284316 z"
       id="path8"
       style="stroke-width:1.23113" />
  </g>
</svg>
